<?xml version="1.0" encoding="utf-8"?>
<!-- Generator: Adobe Illustrator 27.8.0, SVG Export Plug-In . SVG Version: 6.00 Build 0)  -->
<svg version="1.1" id="Layer_1" xmlns="http://www.w3.org/2000/svg" xmlns:xlink="http://www.w3.org/1999/xlink" x="0px" y="0px"
	 viewBox="0 0 64 64" style="enable-background:new 0 0 64 64;" xml:space="preserve">
<style type="text/css">
	.st0{fill:#0B00D1;}
	.st1{fill:#F4F1ED;}
	.st2{fill:#FE4801;}
</style>
<g>
	<circle class="st0" cx="32" cy="32" r="32"/>
	<path class="st1" d="M1,24c-0.7,2.6-1,5.2-1,8s0.4,5.4,1,8H63c0.7-2.6,1-5.2,1-8s-0.4-5.4-1-8H1z"/>
	<path class="st1" d="M12,57c4.5,3.6,10,6,16,6.8V0.3C22,1,16.5,3.4,12,7V57z"/>
	<g>
		<path class="st2" d="M0.3,28C0.1,29.3,0,30.6,0,32s0.1,2.7,0.3,4h63.4c0.2-1.3,0.3-2.6,0.3-4s-0.1-2.7-0.3-4H0.3z"/>
	</g>
	<path class="st2" d="M16,59.7c2.5,1.4,5.2,2.5,8,3.3V1c-2.8,0.7-5.5,1.8-8,3.3V59.7z"/>
</g>
</svg>
