<svg width="48" height="48" viewBox="0 0 48 48" fill="none" xmlns="http://www.w3.org/2000/svg">
<path d="M46.9963 12.4465C46.4432 10.38 44.8191 8.75602 42.7526 8.20284C39.0109 7.19922 23.9999 7.19922 23.9999 7.19922C23.9999 7.19922 8.98912 7.19922 5.24727 8.20284C3.18077 8.75602 1.5568 10.38 1.00362 12.4465C3.00421e-07 16.1883 0 24 0 24C0 24 3.00421e-07 31.8117 1.00362 35.5536C1.5568 37.6201 3.18077 39.244 5.24727 39.7971C8.98912 40.8008 23.9999 40.8008 23.9999 40.8008C23.9999 40.8008 39.0109 40.8008 42.7526 39.7971C44.8191 39.244 46.4432 37.6201 46.9963 35.5536C48 31.8117 48 24 48 24C48 24 47.996 16.1883 46.9963 12.4465Z" fill="#FF0000"/>
<path d="M19.1954 31.1999L31.6656 24.0008L19.1954 16.8015V31.1999Z" fill="white"/>
</svg>
