<?xml version="1.0" encoding="utf-8"?>
<!-- Generator: Adobe Illustrator 27.8.0, SVG Export Plug-In . SVG Version: 6.00 Build 0)  -->
<svg version="1.1" id="Layer_1" xmlns="http://www.w3.org/2000/svg" xmlns:xlink="http://www.w3.org/1999/xlink" x="0px" y="0px"
	 viewBox="0 0 64 64" style="enable-background:new 0 0 64 64;" xml:space="preserve">
<style type="text/css">
	.st0{fill:#0B00D1;}
	.st1{fill:#F4F1ED;}
	.st2{fill:#FE4801;}
</style>
<g>
	<circle class="st0" cx="32" cy="32" r="32"/>
	<path class="st1" d="M1.05,24C0.39,26.56,0,29.23,0,32s0.39,5.44,1.05,8h61.9c0.66-2.56,1.05-5.23,1.05-8s-0.39-5.44-1.05-8H1.05z"
		/>
	<path class="st1" d="M12,56.96c4.5,3.61,9.99,6.01,16,6.77V0.28c-6.01,0.75-11.5,3.16-16,6.77V56.96z"/>
	<g>
		<path class="st2" d="M0.28,28C0.11,29.31,0,30.64,0,32s0.11,2.69,0.28,4h63.45c0.16-1.31,0.28-2.64,0.28-4s-0.11-2.69-0.28-4H0.28
			z"/>
	</g>
	<path class="st2" d="M16,59.68c2.48,1.43,5.16,2.53,8,3.27V1.05c-2.84,0.73-5.52,1.83-8,3.27V59.68z"/>
</g>
</svg>
